<?xml version="1.0" standalone="no"?>
<!DOCTYPE svg PUBLIC "-//W3C//DTD SVG 20010904//EN"
 "http://www.w3.org/TR/2001/REC-SVG-20010904/DTD/svg10.dtd">
<svg version="1.0" xmlns="http://www.w3.org/2000/svg"
 width="182.000000pt" height="182.000000pt" viewBox="0 0 182.000000 182.000000"
 preserveAspectRatio="xMidYMid meet">
<metadata>
Created by potrace 1.14, written by Peter Selinger 2001-2017
</metadata>
<g transform="translate(0.000000,182.000000) scale(0.100000,-0.100000)"
fill="#000000" stroke="none">
<path d="M145 1780 c-3 -6 1 -7 9 -4 18 7 21 14 7 14 -6 0 -13 -4 -16 -10z"/>
<path d="M119 1733 c-13 -16 -12 -17 4 -4 9 7 17 15 17 17 0 8 -8 3 -21 -13z"/>
<path d="M160 1740 c-9 -6 -10 -10 -3 -10 6 0 15 5 18 10 8 12 4 12 -15 0z"/>
<path d="M217 1716 c-3 -7 0 -19 6 -25 8 -8 8 -11 -1 -11 -6 0 -9 -8 -6 -17 5
-16 4 -16 -6 0 -9 14 -15 16 -26 6 -8 -6 -14 -8 -14 -3 0 5 -5 2 -11 -6 -9
-13 -10 -13 -6 1 4 12 0 16 -16 14 -12 -1 -23 -4 -24 -5 -2 -1 -7 -3 -12 -4
-21 -3 -18 -12 4 -12 13 0 21 4 19 8 -3 4 -1 8 4 8 5 0 12 -9 15 -20 3 -11 2
-20 -2 -20 -4 0 -8 -7 -8 -15 0 -8 4 -15 9 -15 4 0 7 -6 6 -12 -2 -7 6 -13 18
-12 15 0 21 -6 20 -19 -2 -33 21 -30 61 8 21 20 31 33 22 30 -9 -3 -22 2 -30
11 -9 12 -10 15 -1 10 13 -8 17 6 5 18 -4 3 -7 15 -8 26 -2 26 28 22 36 -5 5
-18 6 -17 11 6 4 21 1 26 -11 24 -25 -4 -51 14 -45 30 4 8 4 15 1 15 -3 0 -7
-6 -10 -14z m25 -133 c-6 -2 -10 -9 -7 -13 6 -10 -34 -34 -43 -26 -3 3 1 6 8
6 7 0 10 3 7 7 -8 7 23 33 38 32 6 0 4 -3 -3 -6z"/>
<path d="M246 1718 c3 -5 10 -6 15 -3 13 9 11 12 -6 12 -8 0 -12 -4 -9 -9z"/>
<path d="M770 1719 c0 -5 -8 -9 -17 -7 -10 1 -23 -1 -30 -5 -6 -4 -14 -3 -18
3 -4 7 -13 7 -26 -1 -12 -6 -23 -8 -26 -5 -4 3 -12 1 -19 -4 -6 -6 -18 -9 -25
-8 -8 2 -13 -2 -12 -9 1 -6 -5 -10 -15 -8 -22 3 -54 -13 -47 -25 3 -4 -4 -6
-15 -3 -12 3 -20 0 -20 -6 0 -7 5 -9 12 -5 6 4 8 3 5 -4 -4 -5 -17 -8 -30 -5
-18 4 -19 3 -7 -6 13 -9 12 -11 -6 -11 -22 0 -64 -38 -64 -59 0 -7 -5 -9 -12
-5 -8 5 -9 2 -5 -9 4 -10 2 -16 -6 -14 -6 1 -13 -8 -15 -21 -2 -12 -8 -20 -13
-17 -5 4 -9 2 -9 -4 0 -5 6 -12 13 -14 9 -4 9 -6 -1 -6 -8 -1 -10 -6 -6 -13 6
-10 4 -10 -8 0 -13 11 -16 10 -14 -5 0 -10 6 -21 11 -25 6 -5 6 -8 -1 -8 -18
0 -23 -37 -8 -58 11 -16 11 -22 1 -31 -14 -11 -16 -58 -4 -77 3 -6 4 -14 0
-18 -12 -12 -12 -57 0 -50 8 5 8 3 0 -7 -7 -7 -13 -17 -13 -22 0 -4 6 -5 13
-1 9 6 9 5 0 -7 -12 -15 -12 -43 -1 -55 4 -3 4 -12 1 -20 -3 -8 -1 -14 5 -14
5 0 13 -7 16 -16 4 -10 2 -13 -6 -8 -7 5 -8 3 -2 -7 5 -8 9 -17 9 -21 0 -3 4
-10 9 -15 5 -5 6 -2 1 6 -5 9 -4 12 3 8 5 -4 8 -16 5 -27 -3 -11 -1 -20 3 -20
5 0 15 -14 23 -31 10 -23 16 -28 22 -18 6 10 9 7 9 -10 0 -17 4 -22 16 -17 8
3 13 2 9 -3 -3 -5 7 -19 22 -31 16 -12 21 -19 13 -15 -10 4 -9 1 3 -8 15 -13
16 -16 2 -27 -9 -7 -14 -19 -11 -26 3 -7 -3 -18 -12 -26 -13 -11 -14 -11 -7 1
6 10 4 12 -4 7 -7 -5 -10 -11 -7 -14 3 -3 0 -12 -7 -20 -10 -13 -9 -14 1 -8 7
4 -8 -14 -33 -40 -31 -31 -42 -50 -35 -54 9 -5 9 -9 1 -14 -6 -4 -11 -4 -11 0
0 3 -9 -4 -19 -17 -15 -19 -17 -27 -8 -38 10 -12 9 -13 -2 -6 -11 6 -13 4 -8
-9 5 -14 3 -17 -8 -12 -19 7 -19 1 1 -18 8 -9 11 -16 5 -16 -6 0 -11 -5 -11
-11 0 -5 4 -8 9 -5 5 4 7 -3 4 -14 -3 -11 0 -20 6 -20 6 0 11 5 11 12 0 6 3 9
6 6 3 -4 1 -15 -5 -25 -8 -15 -7 -20 4 -20 8 0 12 5 9 11 -3 6 1 3 9 -7 13
-15 66 -22 65 -7 -2 27 4 29 22 9 15 -18 18 -19 14 -6 -5 13 -2 18 7 17 27 -4
40 0 34 10 -3 6 -2 10 3 10 5 0 9 -16 10 -35 1 -26 -2 -34 -11 -28 -8 4 -7 1
2 -10 11 -13 11 -17 1 -17 -8 0 -11 -3 -8 -6 4 -3 3 -18 -2 -34 -5 -18 -4 -32
3 -40 9 -10 9 -11 0 -6 -13 7 -11 -73 3 -96 6 -10 5 -10 -7 -1 -11 9 -14 7
-14 -13 0 -21 11 -29 37 -25 4 0 5 -5 2 -13 -7 -17 37 -30 48 -13 6 9 8 9 8 0
0 -17 32 -17 49 -1 8 7 11 8 8 2 -7 -12 90 -17 108 -6 16 10 36 11 29 1 -8
-13 10 -11 25 3 8 7 11 8 8 2 -7 -13 171 -13 192 0 10 6 12 5 7 -2 -8 -14 20
-12 43 2 10 6 12 5 7 -2 -10 -16 26 -15 43 1 8 6 11 7 8 1 -4 -7 11 -11 43
-11 31 -1 50 3 50 10 0 8 3 9 8 2 8 -13 55 -18 47 -6 -2 5 6 7 19 6 13 -2 29
2 37 7 11 8 10 9 -3 4 -12 -3 -15 -1 -11 9 3 8 9 13 13 10 5 -3 8 15 8 40 -1
24 -5 42 -10 39 -4 -3 -8 0 -8 5 0 6 4 11 8 11 5 0 8 10 6 22 -1 13 -3 27 -3
31 -1 5 -7 5 -13 1 -7 -4 -10 -4 -6 1 4 4 2 15 -5 23 -8 11 -8 14 0 9 8 -5 11
7 10 43 -1 27 -5 50 -9 50 -5 0 -8 9 -8 20 0 11 5 20 12 20 6 0 9 -3 5 -6 -9
-9 19 -34 43 -39 14 -3 18 0 14 8 -4 7 1 5 12 -4 35 -29 50 -34 29 -8 -11 13
-13 19 -5 13 8 -6 27 -14 43 -16 21 -4 25 -2 17 7 -8 9 -4 12 15 10 14 -2 23
1 19 6 -3 5 -11 7 -17 3 -7 -3 -4 1 6 10 11 8 26 12 35 9 11 -4 8 2 -7 15 -13
12 -19 22 -13 22 7 0 12 7 12 16 0 8 -4 13 -9 10 -4 -3 -7 6 -5 19 1 14 -1 25
-5 25 -4 0 -18 15 -31 32 -13 18 -17 29 -9 23 8 -5 7 -3 -3 6 -9 9 -14 20 -10
24 4 5 -2 5 -12 1 -17 -6 -17 -5 -5 11 9 11 10 14 2 9 -8 -4 -13 -2 -13 4 0 6
-5 8 -12 4 -10 -6 -10 -5 -1 7 10 12 5 21 -23 48 -19 19 -34 28 -34 21 0 -7
-3 -10 -6 -7 -4 4 -1 13 6 22 8 10 9 15 1 15 -6 0 -11 6 -11 14 0 8 -5 16 -11
18 -8 3 -6 9 4 20 9 8 13 18 10 22 -4 3 2 6 11 6 12 0 16 5 13 15 -4 8 -1 17
5 21 7 4 8 3 4 -4 -4 -7 -1 -12 8 -12 9 0 13 7 11 19 -3 15 0 18 12 14 12 -5
15 -2 10 10 -4 10 -2 16 6 14 7 -1 11 3 10 10 -2 8 4 10 15 6 14 -6 15 -4 4 9
-10 13 -10 18 -1 24 8 4 9 3 5 -4 -4 -7 -5 -12 -2 -12 3 0 10 10 17 21 9 17 8
20 -3 14 -7 -4 -2 3 12 15 21 19 22 21 5 16 -17 -5 -18 -4 -5 7 14 11 19 22
24 52 1 6 4 15 8 20 3 6 5 37 4 70 -1 33 1 70 6 82 4 12 4 24 0 27 -4 2 -6 27
-5 55 2 28 -1 51 -6 51 -4 0 -6 11 -3 25 3 16 0 25 -8 25 -10 0 -10 3 0 15 12
15 4 21 -23 16 -4 -1 -3 7 2 18 8 14 6 22 -9 36 -10 9 -23 14 -28 11 -4 -3 -8
5 -8 16 1 14 -9 27 -24 35 -14 7 -21 13 -16 13 5 0 -1 9 -14 20 -28 24 -31 25
-24 5 4 -8 -8 -2 -26 15 -18 16 -37 30 -44 30 -6 0 -4 -5 4 -10 9 -6 10 -10 3
-10 -6 0 -15 4 -18 10 -3 5 -15 15 -27 21 -16 8 -19 8 -13 -1 4 -7 -5 -4 -21
6 -15 11 -25 13 -21 7 5 -7 4 -13 -2 -13 -6 0 -11 5 -11 11 0 5 -4 7 -10 4 -5
-3 -10 0 -10 7 0 9 -3 9 -10 -2 -8 -12 -10 -12 -10 -1 0 11 -3 11 -17 0 -9 -8
-14 -9 -10 -3 4 7 -1 15 -10 18 -9 4 -20 2 -23 -5 -5 -7 -10 -8 -14 -1 -3 6
-18 9 -34 7 -15 -1 -30 2 -34 9 -5 7 -11 8 -15 1 -10 -12 -45 -16 -37 -4 3 5
-2 9 -11 9 -10 0 -13 -5 -9 -12 5 -7 3 -8 -7 -3 -20 13 -49 13 -49 1 0 -8 -3
-8 -8 0 -8 12 -53 14 -46 2 3 -4 0 -8 -5 -8 -6 0 -11 5 -11 10 0 6 -4 10 -10
10 -5 0 -10 -5 -10 -11z m645 -157 c-3 -3 -11 0 -18 7 -9 10 -8 11 6 5 10 -3
15 -9 12 -12z m-965 -1087 c11 -13 10 -14 -4 -9 -9 3 -16 10 -16 15 0 13 6 11
20 -6z m937 -10 c0 -8 -4 -15 -9 -15 -10 0 -11 14 -1 23 9 10 10 9 10 -8z
m-942 -15 c3 -6 -1 -7 -9 -4 -18 7 -21 14 -7 14 6 0 13 -4 16 -10z m-35 -40
c0 -5 -5 -10 -11 -10 -5 0 -7 5 -4 10 3 6 8 10 11 10 2 0 4 -4 4 -10z m436
-209 c4 6 10 7 17 0 14 -11 77 -9 96 3 10 7 12 6 6 -4 -6 -9 -4 -11 6 -5 24
15 59 15 59 -1 0 -8 4 -14 8 -14 4 0 9 -12 10 -27 1 -22 0 -24 -8 -13 -9 14
-14 7 -11 -13 1 -4 -9 -2 -21 4 -27 15 -28 15 -39 -3 -6 -8 -12 -9 -16 -3 -5
6 -33 10 -63 9 -30 0 -70 4 -88 8 -31 9 -32 11 -19 26 8 9 12 23 10 30 -4 9 1
10 21 2 17 -6 27 -6 32 1z"/>
<path d="M1613 1715 c0 -8 4 -12 9 -9 5 3 6 10 3 15 -9 13 -12 11 -12 -6z"/>
<path d="M90 1701 c0 -6 4 -13 10 -16 6 -3 7 1 4 9 -7 18 -14 21 -14 7z"/>
<path d="M127 1699 c7 -7 15 -10 18 -7 3 3 -2 9 -12 12 -14 6 -15 5 -6 -5z"/>
<path d="M166 1702 c-2 -4 -1 -14 3 -21 6 -9 10 -10 15 -2 4 6 13 8 19 4 7 -4
6 0 -2 10 -15 18 -27 22 -35 9z"/>
<path d="M1540 1700 c-8 -5 -10 -10 -5 -10 6 0 17 5 25 10 8 5 11 10 5 10 -5
0 -17 -5 -25 -10z"/>
<path d="M1647 1666 c-3 -8 1 -20 9 -27 8 -7 12 -19 9 -28 -5 -13 -4 -13 6 -4
14 14 20 75 7 67 -5 -3 -6 -15 -2 -27 6 -19 5 -20 -9 -9 -9 8 -13 20 -10 28 3
8 3 14 0 14 -3 0 -7 -6 -10 -14z"/>
<path d="M1570 1659 c0 -4 5 -11 12 -15 6 -4 8 -3 5 3 -3 5 0 10 8 10 8 0 15
-4 15 -8 0 -11 -31 -20 -43 -12 -20 13 -36 12 -48 -3 -8 -10 -8 -14 0 -14 6 0
11 4 11 8 0 14 29 10 34 -5 4 -9 0 -13 -12 -11 -9 2 -16 -3 -14 -9 1 -7 -2
-13 -7 -13 -5 0 -12 -7 -15 -16 -4 -10 -2 -13 7 -7 19 12 36 12 44 1 3 -7 1
-8 -5 -4 -7 4 -12 3 -12 -2 0 -10 26 -24 48 -26 7 -1 17 -7 22 -15 7 -12 12
-12 23 -3 7 7 17 9 21 5 4 -4 4 0 1 9 -5 13 -2 15 13 11 11 -2 23 0 26 5 3 6
-2 8 -12 5 -10 -2 -25 3 -33 13 -13 16 -12 16 8 6 18 -10 21 -9 19 6 -2 9 -9
17 -17 17 -8 0 -14 9 -14 20 0 13 -6 20 -17 19 -10 -1 -17 1 -16 5 2 21 -5 29
-27 29 -14 0 -25 -4 -25 -9z m0 -64 c0 -2 -6 -5 -13 -8 -8 -3 -14 1 -14 8 0 7
6 11 14 8 7 -3 13 -6 13 -8z m80 -60 c0 -12 -19 -12 -23 0 -4 9 -1 12 9 8 7
-3 14 -7 14 -8z"/>
<path d="M245 1651 c-3 -5 0 -13 6 -16 5 -4 8 -14 4 -24 -5 -12 -4 -13 6 -4 9
9 9 16 1 26 -7 8 -9 17 -5 20 3 4 4 7 0 7 -3 0 -8 -4 -12 -9z"/>
<path d="M110 1625 c0 -8 4 -15 8 -15 5 0 9 7 9 15 0 8 -4 15 -9 15 -4 0 -8
-7 -8 -15z"/>
<path d="M291 1627 c-8 -10 -7 -14 2 -14 8 0 14 6 14 14 0 7 -1 13 -2 13 -2 0
-8 -6 -14 -13z"/>
<path d="M1695 1619 c-4 -6 -4 -13 -1 -16 3 -4 6 -1 6 7 0 10 4 10 18 -1 15
-13 16 -12 3 4 -16 20 -18 20 -26 6z"/>
<path d="M97 1600 c10 -11 10 -17 0 -29 -10 -14 -10 -14 3 -4 12 9 20 7 37 -7
12 -9 19 -21 15 -25 -4 -5 -1 -5 6 -1 19 11 15 22 -14 34 -16 8 -22 17 -18 25
4 6 4 9 -1 5 -4 -4 -15 -2 -24 4 -13 10 -14 10 -4 -2z"/>
<path d="M1530 1552 c0 -7 8 -16 18 -19 9 -4 20 -11 23 -16 4 -6 14 -5 25 2
13 8 14 11 4 10 -19 -3 -53 11 -62 25 -5 7 -8 7 -8 -2z"/>
<path d="M116 1542 c-3 -5 1 -9 9 -9 8 0 12 4 9 9 -3 4 -7 8 -9 8 -2 0 -6 -4
-9 -8z"/>
<path d="M270 1541 c0 -6 4 -13 10 -16 6 -3 7 1 4 9 -7 18 -14 21 -14 7z"/>
<path d="M1500 1546 c0 -2 8 -10 18 -17 15 -13 16 -12 3 4 -13 16 -21 21 -21
13z"/>
<path d="M215 1520 c-3 -5 -1 -10 4 -10 6 0 11 5 11 10 0 6 -2 10 -4 10 -3 0
-8 -4 -11 -10z"/>
<path d="M256 1498 c3 -5 10 -6 15 -3 13 9 11 12 -6 12 -8 0 -12 -4 -9 -9z"/>
<path d="M1506 1498 c3 -5 10 -6 15 -3 13 9 11 12 -6 12 -8 0 -12 -4 -9 -9z"/>
<path d="M1599 1508 c-5 -18 -6 -38 -1 -34 7 8 12 36 6 36 -2 0 -4 -1 -5 -2z"/>
<path d="M1634 1493 c-10 -7 -13 -13 -7 -13 7 0 15 5 18 10 4 6 10 8 15 5 5
-3 11 -2 14 3 8 13 -19 10 -40 -5z"/>
<path d="M1536 1478 c3 -5 10 -6 15 -3 13 9 11 12 -6 12 -8 0 -12 -4 -9 -9z"/>
<path d="M1636 1453 c-6 -14 -5 -15 5 -6 7 7 10 15 7 18 -3 3 -9 -2 -12 -12z"/>
<path d="M1595 1451 c-3 -5 -2 -12 3 -15 5 -3 9 1 9 9 0 17 -3 19 -12 6z"/>
<path d="M316 1335 c4 -8 10 -12 15 -9 11 6 2 24 -11 24 -5 0 -7 -7 -4 -15z"/>
<path d="M1575 400 c-3 -5 -1 -10 4 -10 6 0 11 5 11 10 0 6 -2 10 -4 10 -3 0
-8 -4 -11 -10z"/>
<path d="M1670 396 c0 -2 8 -10 18 -17 15 -13 16 -12 3 4 -13 16 -21 21 -21
13z"/>
<path d="M210 381 c0 -6 4 -13 10 -16 6 -3 7 1 4 9 -7 18 -14 21 -14 7z"/>
<path d="M1574 372 c3 -5 0 -13 -6 -15 -9 -4 -10 -6 -1 -6 17 -1 25 16 12 25
-7 4 -9 3 -5 -4z"/>
<path d="M1646 361 c-4 -5 -3 -16 0 -25 5 -12 2 -15 -12 -9 -11 4 -15 3 -10
-5 3 -6 1 -14 -5 -18 -7 -4 -9 -3 -5 4 3 6 -2 16 -11 22 -17 11 -17 11 0 6 11
-3 15 -2 12 4 -3 6 -1 10 6 10 7 0 9 3 6 6 -4 4 -17 0 -30 -9 -22 -14 -26 -14
-48 1 -18 12 -21 12 -13 2 15 -19 10 -47 -13 -73 -10 -11 -12 -17 -4 -12 11 6
13 4 9 -7 -5 -11 0 -14 16 -13 16 2 22 -3 23 -17 2 -19 1 -19 -11 -3 -10 14
-15 15 -21 5 -6 -9 -4 -11 5 -5 9 6 10 1 5 -16 -5 -19 -4 -21 4 -9 6 8 11 11
11 6 0 -5 8 -2 17 5 9 8 14 9 10 2 -4 -7 1 -14 13 -18 12 -4 17 -11 14 -18 -4
-7 -4 -9 1 -5 4 4 15 3 24 -3 9 -6 4 0 -11 14 -32 30 -36 42 -10 28 12 -6 23
-6 33 1 12 8 12 9 -2 5 -9 -3 -16 1 -16 9 0 7 4 11 9 8 14 -9 37 16 33 36 -2
10 3 21 12 24 9 4 13 9 10 12 -3 3 -14 0 -26 -7 -24 -15 -41 -4 -21 14 10 10
11 9 5 -3 -8 -13 -7 -13 8 -1 18 14 23 26 8 17 -11 -7 -23 22 -15 35 3 5 3 9
0 9 -3 0 -7 -4 -10 -9z m-50 -44 c4 -3 -4 -4 -16 -2 -30 6 -40 16 -12 12 12
-2 24 -6 28 -10z m-38 -37 c-7 -10 -16 -16 -21 -13 -5 3 -2 10 7 15 9 5 13 14
10 20 -4 7 -2 8 4 4 9 -5 9 -12 0 -26z m107 -17 c-2 -10 -4 -19 -4 -21 -1 -2
-6 0 -11 3 -8 5 -7 11 1 21 15 18 18 18 14 -3z"/>
<path d="M315 350 c-4 -6 -11 -8 -16 -5 -5 4 -9 1 -9 -5 0 -7 -7 -10 -14 -7
-10 4 -13 1 -10 -8 5 -12 9 -12 28 0 13 8 25 13 28 10 2 -3 5 2 5 10 0 18 -3
19 -12 5z"/>
<path d="M229 343 c-1 -5 -1 -12 0 -17 1 -5 -5 -6 -14 -2 -9 3 -18 -1 -21 -9
-4 -8 -11 -12 -18 -8 -6 3 -3 -3 7 -14 14 -16 15 -23 6 -29 -8 -5 -10 -3 -4 5
6 10 3 11 -12 2 -11 -6 -22 -8 -25 -6 -2 2 -4 -5 -4 -16 0 -18 2 -18 12 -4 17
22 47 9 34 -15 -14 -26 9 -39 27 -15 15 22 17 12 3 -15 -11 -20 3 -39 15 -20
4 6 12 7 24 1 13 -7 18 -6 18 3 0 8 -10 12 -24 10 -13 -1 -20 2 -17 7 3 5 11
8 17 7 7 -1 26 12 44 30 17 18 28 32 23 32 -5 0 -12 9 -15 20 -3 11 -11 20
-16 20 -6 0 -7 -4 -4 -10 11 -18 -4 -11 -29 14 -15 16 -20 27 -13 30 9 3 8 5
0 5 -7 1 -14 -2 -14 -6z m-13 -48 c1 -8 -4 -11 -11 -8 -8 2 -11 11 -8 19 6 16
16 11 19 -11z m-6 -75 c0 -5 -5 -10 -11 -10 -5 0 -7 5 -4 10 3 6 8 10 11 10 2
0 4 -4 4 -10z"/>
<path d="M1513 332 c0 -12 5 -22 9 -22 11 0 10 12 -2 30 -7 12 -9 10 -7 -8z"/>
<path d="M380 320 c-9 -6 -10 -10 -3 -10 6 0 15 5 18 10 8 12 4 12 -15 0z"/>
<path d="M1476 322 c-3 -5 1 -9 9 -9 8 0 12 4 9 9 -3 4 -7 8 -9 8 -2 0 -6 -4
-9 -8z"/>
<path d="M310 315 c0 -5 5 -17 10 -25 5 -8 10 -10 10 -5 0 6 -5 17 -10 25 -5
8 -10 11 -10 5z"/>
<path d="M1495 290 c-3 -6 1 -7 9 -4 18 7 21 14 7 14 -6 0 -13 -4 -16 -10z"/>
<path d="M366 278 c3 -5 10 -6 15 -3 13 9 11 12 -6 12 -8 0 -12 -4 -9 -9z"/>
<path d="M1692 260 c0 -14 2 -19 5 -12 2 6 2 18 0 25 -3 6 -5 1 -5 -13z"/>
<path d="M354 253 c16 -20 36 -23 36 -6 0 4 -3 3 -7 0 -3 -4 -16 1 -27 10 -21
18 -21 18 -2 -4z"/>
<path d="M1490 261 c0 -6 4 -13 10 -16 6 -3 7 1 4 9 -7 18 -14 21 -14 7z"/>
<path d="M166 235 c-9 -26 -7 -32 5 -12 6 10 9 21 6 23 -2 3 -7 -2 -11 -11z"/>
<path d="M295 228 c-8 -13 -11 -24 -6 -26 5 -2 6 -13 3 -25 -3 -12 -1 -19 3
-15 4 4 8 22 7 40 -1 25 2 29 10 18 8 -13 9 -12 4 2 -3 10 1 18 12 21 16 4 16
5 0 6 -9 0 -24 -9 -33 -21z"/>
<path d="M330 221 c0 -6 4 -12 8 -15 5 -3 9 1 9 9 0 8 -4 15 -9 15 -4 0 -8 -4
-8 -9z"/>
<path d="M1496 218 c3 -5 10 -6 15 -3 13 9 11 12 -6 12 -8 0 -12 -4 -9 -9z"/>
<path d="M1670 226 c0 -2 7 -7 16 -10 8 -3 12 -2 9 4 -6 10 -25 14 -25 6z"/>
<path d="M170 181 c0 -6 4 -12 8 -15 5 -3 9 1 9 9 0 8 -4 15 -9 15 -4 0 -8 -4
-8 -9z"/>
<path d="M1566 178 c3 -5 10 -6 15 -3 13 9 11 12 -6 12 -8 0 -12 -4 -9 -9z"/>
<path d="M250 160 c0 -5 5 -10 11 -10 5 0 7 5 4 10 -3 6 -8 10 -11 10 -2 0 -4
-4 -4 -10z"/>
<path d="M1580 160 c-9 -6 -10 -10 -3 -10 6 0 15 5 18 10 8 12 4 12 -15 0z"/>
<path d="M1613 145 c0 -8 4 -12 9 -9 5 3 6 10 3 15 -9 13 -12 11 -12 -6z"/>
<path d="M286 142 c-3 -5 1 -9 9 -9 8 0 12 4 9 9 -3 4 -7 8 -9 8 -2 0 -6 -4
-9 -8z"/>
<path d="M1635 111 c-3 -5 -2 -12 3 -15 5 -3 9 1 9 9 0 17 -3 19 -12 6z"/>
</g>
</svg>
